<?xml version="1.0" encoding="utf-8"?>
<svg viewBox="0 0 691.173 696.266" height="1122.52" width="793.70135" id="svg2" version="1.1" xmlns="http://www.w3.org/2000/svg">
  <defs id="defs6">
    <clipPath id="clipPath32" clipPathUnits="userSpaceOnUse">
      <path id="path30" d="M 135.929,231.939 H 442.327 V 377.264 H 135.929 Z"/>
    </clipPath>
    <clipPath id="clipPath200" clipPathUnits="userSpaceOnUse">
      <path id="path198" d="M 135.929,231.939 H 442.327 V 377.264 H 135.929 Z"/>
    </clipPath>
    <clipPath id="clipPath330" clipPathUnits="userSpaceOnUse">
      <path id="path328" d="M 14.684,365.097 H 581.613 V 684.925 H 14.684 Z"/>
    </clipPath>
    <clipPath id="clipPath476" clipPathUnits="userSpaceOnUse">
      <path id="path474" d="M 14.684,365.097 H 581.613 V 684.925 H 14.684 Z"/>
    </clipPath>
  </defs>
  <g transform="matrix(1.333333, 0, 0, -1.333333, -40.913013, 911.860107)" id="g10">
    <path id="path12" style="fill:#ffffff;fill-opacity:1;fill-rule:nonzero;stroke:none" d="M 135.929,231.939 H 442.327 V 377.264 H 135.929 Z"/>
    <g transform="translate(135.9292,260.9347)" id="g14">
      <path id="path16" style="fill:none;stroke:#e6e5e4;stroke-width:0.26100001;stroke-linecap:butt;stroke-linejoin:round;stroke-miterlimit:10;stroke-dasharray:none;stroke-opacity:1" d="M 0,0 H 306.387"/>
    </g>
    <g transform="translate(135.9292,305.7179)" id="g18">
      <path id="path20" style="fill:none;stroke:#e6e5e4;stroke-width:0.26100001;stroke-linecap:butt;stroke-linejoin:round;stroke-miterlimit:10;stroke-dasharray:none;stroke-opacity:1" d="M 0,0 H 306.387"/>
    </g>
    <g transform="translate(135.9292,350.5021)" id="g22">
      <path id="path24" style="fill:none;stroke:#e6e5e4;stroke-width:0.26100001;stroke-linecap:butt;stroke-linejoin:round;stroke-miterlimit:10;stroke-dasharray:none;stroke-opacity:1" d="M 0,0 H 306.387"/>
    </g>
    <g id="g26">
      <g clip-path="url(#clipPath32)" id="g28">
        <g transform="translate(135.9292,238.5431)" id="g34">
          <path id="path36" style="fill:none;stroke:#e6e5e4;stroke-width:0.52700001;stroke-linecap:butt;stroke-linejoin:round;stroke-miterlimit:10;stroke-dasharray:none;stroke-opacity:1" d="M 0,0 H 306.387"/>
        </g>
        <g transform="translate(135.9292,283.3263)" id="g38">
          <path id="path40" style="fill:none;stroke:#e6e5e4;stroke-width:0.52700001;stroke-linecap:butt;stroke-linejoin:round;stroke-miterlimit:10;stroke-dasharray:none;stroke-opacity:1" d="M 0,0 H 306.387"/>
        </g>
        <g transform="translate(135.9292,328.1095)" id="g42">
          <path id="path44" style="fill:none;stroke:#e6e5e4;stroke-width:0.52700001;stroke-linecap:butt;stroke-linejoin:round;stroke-miterlimit:10;stroke-dasharray:none;stroke-opacity:1" d="M 0,0 H 306.387"/>
        </g>
        <g transform="translate(135.9292,372.8937)" id="g46">
          <path id="path48" style="fill:none;stroke:#e6e5e4;stroke-width:0.52700001;stroke-linecap:butt;stroke-linejoin:round;stroke-miterlimit:10;stroke-dasharray:none;stroke-opacity:1" d="M 0,0 H 306.387"/>
        </g>
        <g transform="translate(153.9507,231.9386)" id="g50">
          <path id="path52" style="fill:none;stroke:#e6e5e4;stroke-width:0.52700001;stroke-linecap:butt;stroke-linejoin:round;stroke-miterlimit:10;stroke-dasharray:none;stroke-opacity:1" d="M 0,0 V 145.325"/>
        </g>
        <g transform="translate(183.9902,231.9386)" id="g54">
          <path id="path56" style="fill:none;stroke:#e6e5e4;stroke-width:0.52700001;stroke-linecap:butt;stroke-linejoin:round;stroke-miterlimit:10;stroke-dasharray:none;stroke-opacity:1" d="M 0,0 V 145.325"/>
        </g>
        <g transform="translate(214.0293,231.9386)" id="g58">
          <path id="path60" style="fill:none;stroke:#e6e5e4;stroke-width:0.52700001;stroke-linecap:butt;stroke-linejoin:round;stroke-miterlimit:10;stroke-dasharray:none;stroke-opacity:1" d="M 0,0 V 145.325"/>
        </g>
        <g transform="translate(244.0688,231.9386)" id="g62">
          <path id="path64" style="fill:none;stroke:#e6e5e4;stroke-width:0.52700001;stroke-linecap:butt;stroke-linejoin:round;stroke-miterlimit:10;stroke-dasharray:none;stroke-opacity:1" d="M 0,0 V 145.325"/>
        </g>
        <g transform="translate(274.1084,231.9386)" id="g66">
          <path id="path68" style="fill:none;stroke:#e6e5e4;stroke-width:0.52700001;stroke-linecap:butt;stroke-linejoin:round;stroke-miterlimit:10;stroke-dasharray:none;stroke-opacity:1" d="M 0,0 V 145.325"/>
        </g>
        <g transform="translate(304.1475,231.9386)" id="g70">
          <path id="path72" style="fill:none;stroke:#e6e5e4;stroke-width:0.52700001;stroke-linecap:butt;stroke-linejoin:round;stroke-miterlimit:10;stroke-dasharray:none;stroke-opacity:1" d="M 0,0 V 145.325"/>
        </g>
        <g transform="translate(334.1768,231.9386)" id="g74">
          <path id="path76" style="fill:none;stroke:#e6e5e4;stroke-width:0.52700001;stroke-linecap:butt;stroke-linejoin:round;stroke-miterlimit:10;stroke-dasharray:none;stroke-opacity:1" d="M 0,0 V 145.325"/>
        </g>
        <g transform="translate(364.2168,231.9386)" id="g78">
          <path id="path80" style="fill:none;stroke:#e6e5e4;stroke-width:0.52700001;stroke-linecap:butt;stroke-linejoin:round;stroke-miterlimit:10;stroke-dasharray:none;stroke-opacity:1" d="M 0,0 V 145.325"/>
        </g>
        <g transform="translate(394.2559,231.9386)" id="g82">
          <path id="path84" style="fill:none;stroke:#e6e5e4;stroke-width:0.52700001;stroke-linecap:butt;stroke-linejoin:round;stroke-miterlimit:10;stroke-dasharray:none;stroke-opacity:1" d="M 0,0 V 145.325"/>
        </g>
        <g transform="translate(424.2949,231.9386)" id="g86">
          <path id="path88" style="fill:none;stroke:#e6e5e4;stroke-width:0.52700001;stroke-linecap:butt;stroke-linejoin:round;stroke-miterlimit:10;stroke-dasharray:none;stroke-opacity:1" d="M 0,0 V 145.325"/>
        </g>
      </g>
    </g>
    <path id="path90" style="fill:#7957b1;fill-opacity:1;fill-rule:nonzero;stroke:none" d="m 140.427,254.212 h 27.037 v 8.957 h -27.037 z"/>
    <g transform="translate(170.4663,278.8479)" id="g92">
      <path id="path94" style="fill:#7957b1;fill-opacity:1;fill-rule:nonzero;stroke:none" d="M 0,0 H 27.038 Z"/>
    </g>
    <path id="path96" style="fill:#7957b1;fill-opacity:1;fill-rule:nonzero;stroke:none" d="m 200.506,285.561 h 27.037 v 20.157 h -27.037 z"/>
    <path id="path98" style="fill:#7957b1;fill-opacity:1;fill-rule:nonzero;stroke:none" d="m 230.545,283.326 h 27.037 v 11.201 h -27.037 z"/>
    <g transform="translate(260.5842,254.2122)" id="g100">
      <path id="path102" style="fill:#7957b1;fill-opacity:1;fill-rule:nonzero;stroke:none" d="M 0,0 H 27.038 Z"/>
    </g>
    <path id="path104" style="fill:#7957b1;fill-opacity:1;fill-rule:nonzero;stroke:none" d="m 290.624,357.224 h 27.037 v 13.436 h -27.037 z"/>
    <g transform="translate(320.6628,260.9343)" id="g106">
      <path id="path108" style="fill:#7957b1;fill-opacity:1;fill-rule:nonzero;stroke:none" d="M 0,0 H 27.039 Z"/>
    </g>
    <path id="path110" style="fill:#7957b1;fill-opacity:1;fill-rule:nonzero;stroke:none" d="m 350.703,332.588 h 27.037 v 2.244 h -27.037 z"/>
    <path id="path112" style="fill:#7957b1;fill-opacity:1;fill-rule:nonzero;stroke:none" d="m 380.742,267.648 h 27.037 v 2.244 h -27.037 z"/>
    <path id="path114" style="fill:#7957b1;fill-opacity:1;fill-rule:nonzero;stroke:none" d="m 410.781,260.935 h 27.037 v 4.479 h -27.037 z"/>
    <path id="path116" style="fill:#5891c2;fill-opacity:1;fill-rule:nonzero;stroke:none" d="m 140.427,249.734 h 27.037 v 4.479 h -27.037 z"/>
    <g transform="translate(170.4663,278.8479)" id="g118">
      <path id="path120" style="fill:#5891c2;fill-opacity:1;fill-rule:nonzero;stroke:none" d="M 0,0 H 27.038 Z"/>
    </g>
    <path id="path122" style="fill:#5891c2;fill-opacity:1;fill-rule:nonzero;stroke:none" d="m 200.506,269.892 h 27.037 v 15.679 h -27.037 z"/>
    <path id="path124" style="fill:#5891c2;fill-opacity:1;fill-rule:nonzero;stroke:none" d="m 230.545,260.935 h 27.037 v 22.392 h -27.037 z"/>
    <path id="path126" style="fill:#5891c2;fill-opacity:1;fill-rule:nonzero;stroke:none" d="m 260.584,249.734 h 27.038 v 4.479 h -27.038 z"/>
    <path id="path128" style="fill:#5891c2;fill-opacity:1;fill-rule:nonzero;stroke:none" d="m 290.624,341.545 h 27.037 v 15.679 h -27.037 z"/>
    <path id="path130" style="fill:#5891c2;fill-opacity:1;fill-rule:nonzero;stroke:none" d="m 320.663,254.212 h 27.038 v 6.723 h -27.038 z"/>
    <path id="path132" style="fill:#5891c2;fill-opacity:1;fill-rule:nonzero;stroke:none" d="m 350.703,310.196 h 27.037 v 22.392 h -27.037 z"/>
    <g transform="translate(380.7423,267.6474)" id="g134">
      <path id="path136" style="fill:#5891c2;fill-opacity:1;fill-rule:nonzero;stroke:none" d="M 0,0 H 27.037 Z"/>
    </g>
    <path id="path138" style="fill:#5891c2;fill-opacity:1;fill-rule:nonzero;stroke:none" d="m 410.781,258.691 h 27.037 v 2.244 h -27.037 z"/>
    <path id="path140" style="fill:#f6822f;fill-opacity:1;fill-rule:nonzero;stroke:none" d="m 140.427,238.543 h 27.037 v 11.201 h -27.037 z"/>
    <path id="path142" style="fill:#f6822f;fill-opacity:1;fill-rule:nonzero;stroke:none" d="m 170.466,238.543 h 27.038 v 40.305 h -27.038 z"/>
    <path id="path144" style="fill:#f6822f;fill-opacity:1;fill-rule:nonzero;stroke:none" d="m 200.506,238.543 h 27.037 v 31.349 h -27.037 z"/>
    <path id="path146" style="fill:#f6822f;fill-opacity:1;fill-rule:nonzero;stroke:none" d="m 230.545,238.543 h 27.037 v 22.392 h -27.037 z"/>
    <path id="path148" style="fill:#f6822f;fill-opacity:1;fill-rule:nonzero;stroke:none" d="m 260.584,238.543 h 27.038 v 11.201 h -27.038 z"/>
    <path id="path150" style="fill:#f6822f;fill-opacity:1;fill-rule:nonzero;stroke:none" d="m 290.624,287.805 h 27.037 v 53.74 h -27.037 z"/>
    <path id="path152" style="fill:#f6822f;fill-opacity:1;fill-rule:nonzero;stroke:none" d="m 320.663,238.543 h 27.038 v 15.679 h -27.038 z"/>
    <path id="path154" style="fill:#f6822f;fill-opacity:1;fill-rule:nonzero;stroke:none" d="m 350.703,260.935 h 27.037 v 49.262 h -27.037 z"/>
    <path id="path156" style="fill:#f6822f;fill-opacity:1;fill-rule:nonzero;stroke:none" d="m 380.742,243.022 h 27.037 v 24.636 h -27.037 z"/>
    <path id="path158" style="fill:#f6822f;fill-opacity:1;fill-rule:nonzero;stroke:none" d="m 410.781,238.543 h 27.037 V 258.7 h -27.037 z"/>
    <g transform="translate(140.427,238.5432)" id="g160">
      <path id="path162" style="fill:#f0ab3e;fill-opacity:1;fill-rule:nonzero;stroke:none" d="M 0,0 H 27.038 Z"/>
    </g>
    <g transform="translate(170.4663,238.5432)" id="g164">
      <path id="path166" style="fill:#f0ab3e;fill-opacity:1;fill-rule:nonzero;stroke:none" d="M 0,0 H 27.038 Z"/>
    </g>
    <g transform="translate(200.5056,238.5432)" id="g168">
      <path id="path170" style="fill:#f0ab3e;fill-opacity:1;fill-rule:nonzero;stroke:none" d="M 0,0 H 27.038 Z"/>
    </g>
    <g transform="translate(230.5458,238.5432)" id="g172">
      <path id="path174" style="fill:#f0ab3e;fill-opacity:1;fill-rule:nonzero;stroke:none" d="M 0,0 H 27.037 Z"/>
    </g>
    <g transform="translate(260.5842,238.5432)" id="g176">
      <path id="path178" style="fill:#f0ab3e;fill-opacity:1;fill-rule:nonzero;stroke:none" d="M 0,0 H 27.038 Z"/>
    </g>
    <path id="path180" style="fill:#f0ab3e;fill-opacity:1;fill-rule:nonzero;stroke:none" d="m 290.624,238.543 h 27.037 v 49.262 h -27.037 z"/>
    <g transform="translate(320.6628,238.5432)" id="g182">
      <path id="path184" style="fill:#f0ab3e;fill-opacity:1;fill-rule:nonzero;stroke:none" d="M 0,0 H 27.039 Z"/>
    </g>
    <path id="path186" style="fill:#f0ab3e;fill-opacity:1;fill-rule:nonzero;stroke:none" d="m 350.703,238.543 h 27.037 v 22.392 h -27.037 z"/>
    <path id="path188" style="fill:#f0ab3e;fill-opacity:1;fill-rule:nonzero;stroke:none" d="m 380.742,238.543 h 27.037 v 4.479 h -27.037 z"/>
    <g transform="translate(410.7816,238.5432)" id="g190">
      <path id="path192" style="fill:#f0ab3e;fill-opacity:1;fill-rule:nonzero;stroke:none" d="M 0,0 H 27.037 Z"/>
    </g>
    <g id="g194">
      <g clip-path="url(#clipPath200)" id="g196">
        <path id="path202" style="fill:none;stroke:#2f2f32;stroke-width:0.52700001;stroke-linecap:round;stroke-linejoin:round;stroke-miterlimit:10;stroke-dasharray:none;stroke-opacity:1" d="M 135.929,231.939 H 442.326 V 377.264 H 135.929 Z"/>
      </g>
    </g>
    <path id="path204" style="fill:none;stroke:#231f20;stroke-width:0.5;stroke-linecap:butt;stroke-linejoin:miter;stroke-miterlimit:10;stroke-dasharray:none;stroke-opacity:1" d="M 135.929,231.939 H 442.326 V 377.264 H 135.929 Z"/>
    <text id="text214" style="font-variant: normal; font-weight: normal; font-stretch: normal; font-size: 9.8425px; font-family: Arial; writing-mode: lr-tb; fill: rgb(14, 15, 14); fill-opacity: 1; fill-rule: nonzero; stroke: none; white-space: pre;" transform="matrix(1,0,0,-1,125.6055,235.0107)"><tspan id="tspan206" y="0" x="0">0</tspan><tspan id="tspan208" y="-44.783375" x="-5.4724302 0">20</tspan><tspan id="tspan210" y="-89.56675" x="-5.4724302 0">40</tspan><tspan id="tspan212" y="-134.35011" x="-5.4724302 0">60</tspan></text>
    <g transform="translate(133.2324,238.5431)" id="g216">
      <path id="path218" style="fill:none;stroke:#2f2f32;stroke-width:0.52700001;stroke-linecap:butt;stroke-linejoin:round;stroke-miterlimit:10;stroke-dasharray:none;stroke-opacity:1" d="M 0,0 H 2.697"/>
    </g>
    <g transform="translate(133.2324,283.3263)" id="g220">
      <path id="path222" style="fill:none;stroke:#2f2f32;stroke-width:0.52700001;stroke-linecap:butt;stroke-linejoin:round;stroke-miterlimit:10;stroke-dasharray:none;stroke-opacity:1" d="M 0,0 H 2.697"/>
    </g>
    <g transform="translate(133.2324,328.1095)" id="g224">
      <path id="path226" style="fill:none;stroke:#2f2f32;stroke-width:0.52700001;stroke-linecap:butt;stroke-linejoin:round;stroke-miterlimit:10;stroke-dasharray:none;stroke-opacity:1" d="M 0,0 H 2.697"/>
    </g>
    <g transform="translate(133.2324,372.8937)" id="g228">
      <path id="path230" style="fill:none;stroke:#2f2f32;stroke-width:0.52700001;stroke-linecap:butt;stroke-linejoin:round;stroke-miterlimit:10;stroke-dasharray:none;stroke-opacity:1" d="M 0,0 H 2.697"/>
    </g>
    <g transform="translate(153.9507,229.2413)" id="g232">
      <path id="path234" style="fill:none;stroke:#2f2f32;stroke-width:0.52700001;stroke-linecap:butt;stroke-linejoin:round;stroke-miterlimit:10;stroke-dasharray:none;stroke-opacity:1" d="M 0,0 V 2.697"/>
    </g>
    <g transform="translate(183.9902,229.2413)" id="g236">
      <path id="path238" style="fill:none;stroke:#2f2f32;stroke-width:0.52700001;stroke-linecap:butt;stroke-linejoin:round;stroke-miterlimit:10;stroke-dasharray:none;stroke-opacity:1" d="M 0,0 V 2.697"/>
    </g>
    <g transform="translate(214.0293,229.2413)" id="g240">
      <path id="path242" style="fill:none;stroke:#2f2f32;stroke-width:0.52700001;stroke-linecap:butt;stroke-linejoin:round;stroke-miterlimit:10;stroke-dasharray:none;stroke-opacity:1" d="M 0,0 V 2.697"/>
    </g>
    <g transform="translate(244.0688,229.2413)" id="g244">
      <path id="path246" style="fill:none;stroke:#2f2f32;stroke-width:0.52700001;stroke-linecap:butt;stroke-linejoin:round;stroke-miterlimit:10;stroke-dasharray:none;stroke-opacity:1" d="M 0,0 V 2.697"/>
    </g>
    <g transform="translate(274.1084,229.2413)" id="g248">
      <path id="path250" style="fill:none;stroke:#2f2f32;stroke-width:0.52700001;stroke-linecap:butt;stroke-linejoin:round;stroke-miterlimit:10;stroke-dasharray:none;stroke-opacity:1" d="M 0,0 V 2.697"/>
    </g>
    <g transform="translate(304.1475,229.2413)" id="g252">
      <path id="path254" style="fill:none;stroke:#2f2f32;stroke-width:0.52700001;stroke-linecap:butt;stroke-linejoin:round;stroke-miterlimit:10;stroke-dasharray:none;stroke-opacity:1" d="M 0,0 V 2.697"/>
    </g>
    <g transform="translate(334.1768,229.2413)" id="g256">
      <path id="path258" style="fill:none;stroke:#2f2f32;stroke-width:0.52700001;stroke-linecap:butt;stroke-linejoin:round;stroke-miterlimit:10;stroke-dasharray:none;stroke-opacity:1" d="M 0,0 V 2.697"/>
    </g>
    <g transform="translate(364.2168,229.2413)" id="g260">
      <path id="path262" style="fill:none;stroke:#2f2f32;stroke-width:0.52700001;stroke-linecap:butt;stroke-linejoin:round;stroke-miterlimit:10;stroke-dasharray:none;stroke-opacity:1" d="M 0,0 V 2.697"/>
    </g>
    <g transform="translate(394.2559,229.2413)" id="g264">
      <path id="path266" style="fill:none;stroke:#2f2f32;stroke-width:0.52700001;stroke-linecap:butt;stroke-linejoin:round;stroke-miterlimit:10;stroke-dasharray:none;stroke-opacity:1" d="M 0,0 V 2.697"/>
    </g>
    <g transform="translate(424.2949,229.2413)" id="g268">
      <path id="path270" style="fill:none;stroke:#2f2f32;stroke-width:0.52700001;stroke-linecap:butt;stroke-linejoin:round;stroke-miterlimit:10;stroke-dasharray:none;stroke-opacity:1" d="M 0,0 V 2.697"/>
    </g>
    <text id="text292" style="font-variant: normal; font-weight: normal; font-stretch: normal; font-size: 9.84109px; font-family: Arial; writing-mode: lr-tb; fill: rgb(14, 15, 14); fill-opacity: 1; fill-rule: nonzero; stroke: none; white-space: pre;" transform="matrix(0.70710678,0.70710678,0.70710678,-0.70710678,135.0357,198.0274)"><tspan id="tspan272" y="0" x="0 6.5640059 8.7487268 14.220372 19.692017 25.163662 30.635307">Bladder</tspan><tspan id="tspan274" y="21.246908" x="26.708714 33.272717 36.549801 42.021446 47.493092 52.413635">Breast</tspan><tspan id="tspan276" y="42.483978" x="32.091789 39.197052 44.668697 46.85342 52.325066 55.602146 61.073792 65.994339 68.730156 74.201805">Colorectal</tspan><tspan id="tspan278" y="63.721043" x="66.30925 73.965614 79.437263 84.357803 87.093628 90.508484 92.693207">Gastric</tspan><tspan id="tspan280" y="86.955856" x="47.680073 50.415894 55.887539 58.62336 61.900444 67.372086 72.843735 78.315376 83.787025 89.258667 91.994492 94.179214 99.099754 101.83558 107.30722 112.77887 117.69941">Intrahepatic duct</tspan><tspan id="tspan282" y="106.20502" x="118.23083 123.70248 129.17412 134.64577">Lung</tspan><tspan id="tspan284" y="127.45193" x="126.99924 134.65561 139.33012 144.80177 148.21663 150.40135 155.87299">Ovarian</tspan><tspan id="tspan286" y="149.15154" x="138.72981 145.29382 150.37183 155.44983 159.97673 162.86017 167.93817 173.01616 177.54306">Pancrease</tspan><tspan id="tspan288" y="169.92607" x="167.19025 173.75424 177.03133 182.50298 187.42352 190.15935 195.63098 198.36681">Prostate</tspan><tspan id="tspan290" y="191.17297" x="192.56056 198.57347 203.74988 208.67043 211.94751 217.41916 219.60388">Thyroid</tspan></text>
    <text id="text296" style="font-variant: normal; font-weight: normal; font-stretch: normal; font-size: 16px; font-family: Arial; writing-mode: lr-tb; fill: rgb(14, 15, 14); fill-opacity: 1; fill-rule: nonzero; stroke: none; white-space: pre;" transform="matrix(0,1,1,0,110.8369,238.7139)"><tspan id="tspan294" y="0" x="0 11.552 20.448 33.776001 42.672001 51.568001 56.896 61.344002 70.239998 74.688004 79.136002 87.136002 96.031998 109.36 118.256 121.808 130.70399">Number of samples</tspan></text>
    <path id="path298" style="fill:#ffffff;fill-opacity:1;fill-rule:nonzero;stroke:none" d="m 458.498,318.907 h 17.008 v 17.008 h -17.008 z"/>
    <path id="path300" style="fill:#7957b1;fill-opacity:1;fill-rule:nonzero;stroke:none" d="m 459.196,319.606 h 15.61 v 15.61 h -15.61 z"/>
    <path id="path302" style="fill:#ffffff;fill-opacity:1;fill-rule:nonzero;stroke:none" d="m 458.498,301.9 h 17.008 v 17.008 h -17.008 z"/>
    <path id="path304" style="fill:#5891c2;fill-opacity:1;fill-rule:nonzero;stroke:none" d="m 459.196,302.598 h 15.61 v 15.61 h -15.61 z"/>
    <path id="path306" style="fill:#ffffff;fill-opacity:1;fill-rule:nonzero;stroke:none" d="m 458.498,284.892 h 17.008 V 301.9 h -17.008 z"/>
    <path id="path308" style="fill:#f6822f;fill-opacity:1;fill-rule:nonzero;stroke:none" d="m 459.196,285.59 h 15.61 v 15.61 h -15.61 z"/>
    <path id="path310" style="fill:#ffffff;fill-opacity:1;fill-rule:nonzero;stroke:none" d="m 458.498,267.884 h 17.008 v 17.008 h -17.008 z"/>
    <path id="path312" style="fill:#f0ab3e;fill-opacity:1;fill-rule:nonzero;stroke:none" d="m 459.196,268.582 h 15.61 v 15.61 h -15.61 z"/>
    <text id="text322" style="font-variant: normal; font-weight: normal; font-stretch: normal; font-size: 12px; font-family: Arial; writing-mode: lr-tb; fill: rgb(14, 15, 14); fill-opacity: 1; fill-rule: nonzero; stroke: none; white-space: pre;" transform="matrix(1,0,0,-1,480.8994,324.2324)"><tspan id="tspan314" y="0" x="0 8.6639996 15.336 19.620001 29.615999 36.287998">Normal</tspan><tspan id="tspan316" y="17.004" x="0 8.0039997 14.676 17.34 24.011999 30.011999 36.683998 43.355999">Adjacent</tspan><tspan id="tspan318" y="34.007999" x="0 5.9039998 12.576 22.572001 29.243999 33.240002 39.911999">Tumor_1</tspan><tspan id="tspan320" y="51.012001" x="0 5.9039998 12.576 22.572001 29.243999 33.240002 39.911999">Tumor_2</tspan></text>
    <g id="g324">
      <g clip-path="url(#clipPath330)" id="g326">
        <g transform="translate(267.7476,639.129)" id="g332">
          <path id="path334" style="fill:#e0dfde;fill-opacity:1;fill-rule:nonzero;stroke:none" d="m 0,0 c 0.425,-0.991 0.973,-2.011 1.993,-2.607 1.019,-0.594 2.632,-0.556 3.289,0.338 -0.843,-3.608 0.418,-7.53 3.3,-10.261 1.507,-1.429 3.435,-2.558 4.597,-4.208 0.573,-0.814 0.91,-1.708 1.058,-2.632 h 22.398 c 0.189,0.592 0.466,1.163 0.844,1.7 1.162,1.649 3.09,2.778 4.598,4.208 2.881,2.73 4.142,6.653 3.299,10.26 0.657,-0.894 2.271,-0.932 3.29,-0.337 1.018,0.595 1.567,1.616 1.992,2.606 0.934,2.178 1.513,4.466 1.715,6.778 0.098,1.139 0.088,2.348 -0.579,3.337 -0.668,0.989 -2.199,1.633 -3.386,1.112 0.632,1.857 3.593,11.184 -1.367,19.272 -2.492,4.063 -6.035,6.268 -8.108,7.559 -1.952,1.215 -6.654,4.062 -13.416,4.346 C 23.507,41.556 16.873,41.74 10.4,37.408 9.03,36.492 5.92,34.363 3.617,30.499 -1.327,22.203 1.653,12.967 2.25,11.227 1.063,11.748 -0.468,11.104 -1.136,10.115 -1.804,9.125 -1.814,7.917 -1.715,6.778 -1.513,4.465 -0.934,2.177 0,0"/>
        </g>
        <g transform="translate(194.8369,441.1178)" id="g336">
          <path id="path338" style="fill:#e0dfde;fill-opacity:1;fill-rule:nonzero;stroke:none" d="m 0,0 c 0.998,0.015 1.928,0.428 2.783,0.878 2.033,1.07 3.877,2.413 5.45,3.966 -0.405,-7.864 -0.81,-15.727 -1.215,-23.59 -0.056,-1.085 -0.109,-2.195 0.253,-3.234 0.295,-0.848 0.851,-1.603 1.4,-2.348 0.547,-0.741 1.155,-1.527 2.098,-1.841 0.941,-0.315 2.268,0.15 2.303,1.032 0.162,-0.869 1.439,-1.277 2.396,-1.007 0.957,0.271 1.648,0.986 2.284,1.668 0.119,-0.747 1.317,-1.018 2.066,-0.644 0.75,0.373 1.135,1.115 1.473,1.809 3.18,6.527 6.359,13.055 9.539,19.582 0.932,1.915 1.868,3.838 2.471,5.851 0.673,2.249 0.922,4.594 0.732,6.912 -0.14,1.712 -0.516,3.41 -0.501,5.126 0.023,2.457 0.847,4.849 1.705,7.188 1.174,3.2 2.424,6.378 3.751,9.531 1.464,3.481 3.024,6.94 4.125,10.522 2.226,7.237 2.534,14.824 2.209,22.313 -0.087,2 0.557,3.917 1.385,5.783 3.898,8.784 6.873,17.882 8.875,27.141 C 55.987,84.604 56.392,72.57 56.797,60.535 56.967,55.458 56.316,50.391 55.666,45.343 54.572,36.858 53.478,28.374 52.384,19.889 52.375,19.818 52.452,19.826 52.51,19.858 51.278,14.664 50.674,9.247 50.734,3.944 c 0.057,-5.041 0.7,-10.06 1.343,-15.07 2.057,-16.034 4.114,-32.068 6.172,-48.102 h 35.153 c 0.815,15.637 2.752,31.566 3.55,47.135 0.852,-0.121 1.703,-0.242 2.555,-0.364 0.68,-22.518 1.908,-37.105 3.092,-46.771 h 35.742 c 2.019,15.749 4.041,31.499 6.061,47.248 0.643,5.009 1.286,10.029 1.343,15.069 0.06,5.304 -0.544,10.721 -1.775,15.915 0.057,-0.032 0.134,-0.04 0.125,0.031 -1.094,8.485 -2.188,16.969 -3.282,25.454 -0.65,5.048 -1.301,10.115 -1.13,15.192 0.405,12.035 0.81,24.069 1.214,36.103 2.002,-9.259 4.977,-18.357 8.875,-27.142 0.828,-1.866 1.472,-3.782 1.385,-5.782 -0.325,-7.489 -0.016,-15.076 2.209,-22.313 1.102,-3.582 2.661,-7.041 4.126,-10.522 1.326,-3.153 2.576,-6.331 3.75,-9.531 0.859,-2.34 1.682,-4.732 1.704,-7.189 0.016,-1.715 -0.36,-3.414 -0.5,-5.125 -0.19,-2.318 0.059,-4.663 0.733,-6.912 0.602,-2.014 1.539,-3.936 2.47,-5.851 3.18,-6.528 6.36,-13.056 9.539,-19.583 0.338,-0.693 0.723,-1.435 1.473,-1.808 0.749,-0.373 1.948,-0.104 2.066,0.643 0.636,-0.681 1.327,-1.396 2.285,-1.667 0.957,-0.27 2.233,0.137 2.395,1.006 0.035,-0.882 1.362,-1.345 2.304,-1.031 0.942,0.314 1.55,1.1 2.098,1.841 0.548,0.744 1.104,1.5 1.399,2.348 0.362,1.039 0.31,2.149 0.254,3.234 -0.405,7.864 -0.811,15.726 -1.216,23.589 1.573,-1.552 3.417,-2.896 5.449,-3.965 0.856,-0.45 1.786,-0.863 2.784,-0.878 0.998,-0.016 2.07,0.475 2.339,1.315 -0.32,1.702 -2.472,2.524 -4.149,3.432 -3.345,1.809 -5.511,4.853 -8.256,7.315 -1.642,1.474 -3.512,2.753 -5.543,3.792 -0.536,0.274 -1.12,0.564 -1.375,1.06 -0.209,0.407 -0.154,0.875 -0.096,1.318 0.363,2.759 0.696,5.212 0.647,7.989 -0.221,12.539 -1.641,25.277 -7.051,36.89 -0.666,1.427 -1.391,2.84 -1.844,4.33 -0.551,1.815 -0.683,3.705 -0.797,5.581 -0.572,9.473 -0.762,19.148 -4.392,28.086 -0.65,1.598 -1.409,3.178 -1.701,4.854 -0.289,1.663 -0.106,3.358 0.078,5.033 0.45,4.089 0.313,7.353 0.705,11.447 0.291,3.053 0.351,6.122 0.18,9.181 -0.24,4.274 -0.994,8.682 -3.632,12.284 -2.993,4.087 -8.056,6.655 -13.186,8.507 -5.128,1.851 -10.539,3.154 -15.392,5.505 -2.096,1.015 -4.066,2.215 -6.032,3.413 -3.098,1.889 -6.198,3.777 -9.296,5.665 -2.856,1.741 -5.781,3.542 -7.707,6.078 -1.924,2.536 -2.645,6.014 -0.848,8.621 1.042,1.511 2.769,2.546 4.121,3.855 2.583,2.501 3.713,6.095 2.957,9.399 0.589,-0.819 2.035,-0.854 2.949,-0.309 0.913,0.546 1.405,1.481 1.786,2.388 0.837,1.994 1.356,4.09 1.537,6.209 0.088,1.043 0.08,2.151 -0.518,3.057 -0.599,0.906 -1.972,1.496 -3.036,1.018 1.311,5.939 2.49,12.553 -1.226,17.655 -2.363,3.246 -5.673,5.061 -6.92,5.737 -5.103,2.766 -10.113,3.126 -12.521,3.157 -1.917,0.172 -7.164,0.418 -12.562,-2.303 -1.221,-0.615 -4.5,-2.413 -6.92,-5.737 -3.716,-5.101 -2.537,-11.716 -1.226,-17.655 -1.064,0.479 -2.437,-0.112 -3.035,-1.018 -0.599,-0.906 -0.608,-2.013 -0.519,-3.057 0.181,-2.118 0.7,-4.215 1.537,-6.209 0.382,-0.907 0.873,-1.842 1.786,-2.387 0.914,-0.545 2.36,-0.51 2.949,0.309 -0.756,-3.305 0.375,-6.898 2.958,-9.4 1.351,-1.309 3.079,-2.343 4.12,-3.855 1.797,-2.607 1.077,-6.084 -0.848,-8.62 -1.926,-2.537 -4.851,-4.338 -7.707,-6.078 -3.099,-1.889 -6.198,-3.777 -9.296,-5.666 -1.966,-1.197 -3.935,-2.397 -6.031,-3.413 -4.854,-2.35 -10.265,-3.654 -15.393,-5.505 -5.13,-1.852 -10.192,-4.42 -13.185,-8.506 -2.639,-3.603 -3.393,-8.011 -3.632,-12.284 -0.172,-3.06 -0.111,-6.129 0.18,-9.181 0.391,-4.094 0.253,-7.358 0.704,-11.448 0.184,-1.675 0.368,-3.37 0.078,-5.033 -0.291,-1.676 -1.052,-3.256 -1.7,-4.854 -3.631,-8.938 -3.822,-18.613 -4.393,-28.085 -0.113,-1.876 -0.246,-3.766 -0.797,-5.582 -0.452,-1.49 -1.179,-2.902 -1.844,-4.33 -5.411,-11.613 -6.83,-24.351 -7.05,-36.89 -0.05,-2.777 0.283,-5.229 0.646,-7.989 0.059,-0.442 0.113,-0.911 -0.097,-1.317 C 16.729,16.418 16.146,16.128 15.609,15.854 13.578,14.815 11.708,13.537 10.066,12.063 7.321,9.6 5.155,6.557 1.811,4.747 0.134,3.839 -2.019,3.018 -2.339,1.316 -2.07,0.475 -0.998,-0.016 0,0"/>
        </g>
        <g transform="translate(310.2383,556.9279)" id="g340">
          <path id="path342" style="fill:#8e76b1;fill-opacity:1;fill-rule:nonzero;stroke:none" d="m 0,0 c -1.75,-1.477 -3.33,-3.213 -4.254,-5.291 -0.925,-2.077 -1.132,-4.532 -0.191,-6.602 1.19,-2.62 3.974,-4.209 6.775,-5.022 3.184,-0.923 6.699,-1.045 9.763,0.211 3.062,1.256 5.569,4.038 5.934,7.279 0.151,1.334 -0.054,2.694 -0.491,3.966 C 15.203,1.334 5.759,4.858 0,0"/>
        </g>
        <g transform="translate(271.8853,460.5157)" id="g344">
          <path id="path346" style="fill:#8e76b1;fill-opacity:1;fill-rule:nonzero;stroke:none" d="m 0,0 c -0.391,-0.529 -0.833,-1.046 -1.42,-1.41 -1.424,-0.882 -3.401,-0.685 -5.003,-0.083 -3.841,1.441 -6.341,4.853 -7.357,8.399 -1.015,3.545 -0.767,7.261 -0.512,10.91 0.084,1.198 0.167,2.395 0.251,3.594 0.052,0.737 0.105,1.484 0.353,2.191 0.27,0.768 0.76,1.464 1.036,2.231 0.38,1.056 0.334,2.186 0.35,3.292 0.043,2.889 0.535,5.772 1.46,8.544 0.657,1.971 1.631,3.999 3.552,5.175 3.054,1.869 7.217,0.941 10.765,-0.055 1.39,-0.391 2.779,-0.782 4.169,-1.171 2.044,-0.575 4.12,-1.162 5.897,-2.216 2.024,0.689 4.469,0.318 6.11,-0.926 3.204,-0.207 6.412,-0.355 9.623,-0.445 0.94,1.303 3.126,1.767 4.644,0.986 0.359,1.365 1.904,2.192 3.311,2.863 0.622,0.297 1.245,0.595 1.868,0.892 1.263,0.604 1.704,1.125 3.076,1.505 -0.418,1.271 2.446,2.599 3.665,1.818 0.882,0.035 1.252,0.13 1.723,0.111 0.388,-0.016 0.761,-0.053 1.171,-0.215 0.735,-0.293 1.109,-0.835 1.251,-1.04 0.83,-1.202 0.178,-2.801 0,-5.397 -0.158,-2.305 0.277,-2.224 0,-4.048 -0.287,-1.893 -0.758,-1.995 -1.219,-4.016 -0.298,-1.303 -0.306,-2.678 -0.324,-5.428 -0.009,-1.402 -0.018,-2.802 0.147,-4.686 0.188,-2.15 0.371,-2.428 0.459,-3.904 0.1,-1.647 -0.036,-3.304 -0.4,-4.923 C 47.866,9.092 46.062,5.887 44.277,2.728 43.117,0.673 41.955,-1.381 40.794,-3.436 39.899,-5.02 38.848,-6.734 36.97,-7.384 36.203,-7.65 35.292,-7.743 34.757,-8.292 34.46,-8.596 34.329,-8.998 34.065,-9.324 c -1.058,-1.307 -3.374,-0.769 -5.032,-0.092 -1.802,-1.155 -4.656,-0.739 -5.932,0.864 1.339,-6.591 0.745,-13.475 -1.712,-19.816 -0.39,-1.007 -0.977,-2.128 -2.148,-2.418 -1.053,-0.259 -2.189,0.31 -2.793,1.108 -0.603,0.797 -0.789,1.776 -0.941,2.722 -1.056,6.584 -1.152,13.286 -0.283,19.891 0.325,2.474 1.067,5.295 3.603,6.429 3.31,1.48 7.463,-0.888 10.978,0.169 2.324,0.699 3.749,2.705 4.89,4.609 1.127,1.882 2.164,3.806 3.106,5.764 1.014,2.107 1.927,4.287 2.146,6.564 0.193,2.02 -0.166,4.046 -0.524,6.048 -0.478,2.677 -0.957,5.354 -1.435,8.03 -0.069,0.383 -0.146,0.784 -0.411,1.094 -0.521,0.605 -1.692,-0.11 -4.007,-0.602 -2.629,-0.558 -2.923,-0.127 -4.621,-0.773 -1.51,-0.574 -1.502,-0.999 -2.672,-1.189 -1.511,-0.245 -1.827,0.415 -3.519,0.249 -1.676,-0.165 -1.76,-0.851 -3.151,-0.768 -1.088,0.065 -1.417,0.508 -2.551,0.483 -0.865,-0.02 -1.557,-0.297 -1.987,-0.513 -1.09,-0.074 -1.786,0.155 -2.216,0.37 -0.917,0.46 -0.954,1.028 -1.877,1.288 -0.429,0.122 -0.902,0.092 -1.85,0.034 C 8.267,30.167 7.649,30.064 7.504,30.043 7.048,29.975 5.705,29.89 2.048,32.11 c -1.221,0.742 -2.778,1.787 -4.449,3.2 -0.552,-1.446 -0.628,-2.606 -0.601,-3.386 0.059,-1.7 0.637,-2.285 0.276,-3.817 C -2.881,27.449 -3.068,27.122 -3.231,26.153 -3.337,25.527 -3.343,24.892 -3.349,24.26 -3.355,23.616 -3.361,22.972 -3.368,22.327 -3.403,18.538 -4.806,12.556 -1.771,9.512 1.383,6.349 3.112,4.209 0,0"/>
        </g>
        <g transform="translate(318.5479,545.0421)" id="g348">
          <path id="path350" style="fill:#5a2f88;fill-opacity:1;fill-rule:nonzero;stroke:none" d="m 0,0 c 0,-0.54 -0.501,-0.977 -1.118,-0.977 -0.616,0 -1.116,0.437 -1.116,0.977 0,0.54 0.5,0.978 1.116,0.978 C -0.501,0.978 0,0.54 0,0"/>
        </g>
        <g transform="translate(307.9844,537.8473)" id="g352">
          <path id="path354" style="fill:#a8a9ac;fill-opacity:1;fill-rule:nonzero;stroke:none" d="m 0,0 c 2.097,-1.174 4.381,-2.454 7.713,-2.698 0.937,-0.07 6.115,-0.363 10.33,2.986 2.549,2.025 3.516,4.404 3.876,5.503 C 20.859,4.356 18.513,1.688 14.535,0.527 12.021,-0.208 9.693,-0.096 7.713,0 6.535,0.057 4.332,0.177 1.626,0.972 1.017,1.151 -3.386,2.49 -7.142,5.838 -7.727,6.359 -8.009,6.673 -8.009,6.673 -8.009,6.673 -4.953,2.774 0,0"/>
        </g>
        <g transform="translate(295.5229,541.1442)" id="g356">
          <path id="path358" style="fill:#d37a8b;fill-opacity:1;fill-rule:nonzero;stroke:none" d="m 0,0 v 0 c 0,-1.468 -0.032,-2.551 -0.037,-2.722 -0.081,-3.074 1.123,-7.929 1.63,-9.645 0.087,-0.294 0.273,-0.883 0.853,-1.341 0.594,-0.468 1.449,-0.556 2.245,-0.622 1.802,-0.149 3.603,-0.298 5.405,-0.448 3.298,-0.272 6.646,-0.555 9.73,-1.612 3.084,-1.057 5.924,-3.008 7.093,-5.718 2.056,-4.766 -1.593,-9.988 -5.932,-13.385 -2.79,-2.185 -6.081,-4.07 -9.792,-4.509 -3.178,-0.376 -6.389,0.336 -9.435,1.213 -5.362,1.542 -10.868,3.645 -16.432,2.813 -0.391,1.032 -1.368,1.88 -2.55,2.216 1.8,4.086 6.805,6.91 11.804,6.658 3.606,-0.182 7.318,-1.773 10.677,-0.61 1.28,0.443 2.449,1.4 2.539,2.601 0.152,1.967 -2.345,3.129 -4.181,4.274 -3.169,1.979 -5.109,5.187 -6.04,8.494 -0.931,3.307 -0.956,6.751 -0.976,10.156 -0.052,9.001 -0.103,18.001 -0.155,27.001 -0.093,16.165 -0.186,32.331 -0.494,48.494 -0.001,0.067 -0.044,0.867 -0.083,1.963 -0.028,0.756 -0.041,1.135 -0.04,1.283 0.005,1.213 0.013,2.501 0.796,3.5 0.205,0.262 0.565,0.709 1.092,0.737 0.485,0.026 0.859,-0.316 1.041,-0.482 1.225,-1.123 1.084,-3.664 1.054,-4.123 L -0.469,61.829"/>
        </g>
        <g transform="translate(287.4639,499.5909)" id="g360">
          <path id="path362" style="fill:#865732;fill-opacity:1;fill-rule:nonzero;stroke:none" d="M 0,0 C 0.07,-0.103 0.14,-0.207 0.21,-0.311 0.507,-0.18 0.804,-0.05 1.101,0.08 1.415,-0.257 2.089,-0.258 2.403,0.078 2.496,-0.13 2.772,-0.262 3.022,-0.217 3.272,-0.172 3.466,0.044 3.458,0.268 3.498,0.074 3.786,-0.015 3.998,0.053 4.21,0.121 4.353,0.293 4.467,0.463 4.411,0.274 4.72,0.132 4.923,0.215 5.126,0.298 5.226,0.497 5.309,0.679 5.596,0.438 6.143,0.521 6.319,0.833 6.272,0.632 6.621,0.538 6.832,0.626 7.043,0.715 7.21,0.892 7.443,0.919 7.608,0.938 7.809,0.884 7.921,0.992 8.006,1.073 7.986,1.203 8.049,1.298 8.172,1.484 8.486,1.424 8.732,1.42 8.979,1.417 9.263,1.691 9.053,1.803 9.44,1.775 9.986,1.873 9.96,2.212 c 0.143,-0.141 0.352,-0.296 0.546,-0.216 0.092,0.038 0.149,0.119 0.225,0.178 0.205,0.155 0.51,0.123 0.775,0.166 0.265,0.044 0.55,0.285 0.404,0.484 0.295,-0.21 0.815,-0.064 0.916,0.256 0.135,-0.344 0.833,-0.315 0.931,0.039 0.115,-0.13 0.348,-0.162 0.505,-0.071 0.155,0.092 0.207,0.295 0.112,0.436 0.181,-0.041 0.373,-0.083 0.552,-0.033 0.178,0.049 0.322,0.227 0.247,0.377 0.276,-0.064 0.591,0.127 0.62,0.376 0.276,-0.108 0.635,0.142 0.578,0.401 0.257,-0.046 0.399,0 0.481,0.048 0.163,0.097 0.116,0.219 0.297,0.33 0.182,0.111 0.316,0.043 0.44,0.169 0.078,0.08 0.031,0.115 0.123,0.223 0.113,0.134 0.21,0.11 0.28,0.223 0.072,0.114 0,0.184 0.058,0.275 0.044,0.067 0.155,0.137 0.461,0.14 0.142,0.021 0.324,0.07 0.403,0.198 0.061,0.098 0.012,0.156 0.07,0.277 0.076,0.154 0.236,0.232 0.377,0.301 0.254,0.123 0.343,0.081 0.52,0.167 0.124,0.061 0.287,0.182 0.412,0.454 0.051,0.113 0.103,0.225 0.154,0.338 0.249,0.09 0.388,0.212 0.461,0.291 0.09,0.096 0.145,0.201 0.253,0.411 0.07,0.135 0.122,0.248 0.155,0.326 0.351,0.02 0.635,0.347 0.563,0.647 0.35,-0.081 0.54,0.346 0.568,0.661 0.337,0.379 0.57,0.828 0.673,1.299 0.027,0.126 0.011,0.299 -0.133,0.322 0.322,0.387 0.124,1.015 -0.378,1.204 -0.051,0.143 -0.104,0.286 -0.156,0.429 -0.202,0.028 -0.415,-0.014 -0.584,-0.115 0.034,0.132 -0.545,0.158 -0.65,0.058 -0.035,-0.033 -0.071,-0.067 -0.106,-0.1 -0.039,0.049 -0.079,0.098 -0.118,0.147 -0.12,-0.035 -0.536,-0.217 -0.656,-0.252 -0.036,-0.066 -0.072,-0.132 -0.108,-0.198 0.034,0.139 -0.192,0.234 -0.338,0.171 -0.145,-0.062 -0.215,-0.207 -0.273,-0.339 -0.123,0.093 -0.327,0.049 -0.438,-0.055 -0.112,-0.105 -0.155,-0.25 -0.193,-0.388 -0.08,0.035 -0.159,0.07 -0.239,0.105 -0.12,-0.127 -0.214,-0.274 -0.276,-0.43 -0.28,0.075 -0.606,-0.143 -0.596,-0.399 -0.1,0.112 -0.31,0.07 -0.437,-0.018 -0.128,-0.088 -0.232,-0.213 -0.388,-0.252 -0.085,-0.021 -0.177,-0.013 -0.263,-0.027 -0.241,-0.043 -0.408,-0.284 -0.341,-0.49 -0.275,0.199 -0.767,0.057 -0.853,-0.246 -0.106,0.132 -0.315,0.191 -0.489,0.139 -0.172,-0.053 -0.294,-0.213 -0.284,-0.374 -0.075,0.147 -0.328,0.158 -0.472,0.058 -0.144,-0.099 -0.203,-0.264 -0.248,-0.419 L 13.979,10.05 C 13.65,10.065 13.224,9.843 13.114,9.572 12.915,9.573 12.711,9.574 12.521,9.519 12.332,9.464 12.155,9.343 12.101,9.176 11.903,9.3 11.608,9.286 11.429,9.143 11.373,9.098 11.319,9.039 11.243,9.034 11.176,9.03 11.118,9.069 11.059,9.097 10.817,9.206 10.479,9.081 10.401,8.854 10.132,8.988 9.737,8.834 9.672,8.569 9.542,8.754 9.262,8.848 9.022,8.788 8.782,8.727 8.604,8.516 8.607,8.298 8.526,8.475 8.313,8.598 8.095,8.595 7.878,8.591 7.67,8.461 7.597,8.281 7.563,8.306 7.517,8.334 7.457,8.354 7.276,8.413 7.109,8.358 7.06,8.339 6.975,8.248 6.845,8.14 6.687,8.141 6.546,8.141 6.483,8.227 6.362,8.256 6.224,8.289 6.005,8.25 5.652,7.926 5.143,7.959 4.898,7.926 4.5,7.644 3.815,7.719 3.11,7.644 2.466,7.428 2.221,7.51 1.934,7.49 1.708,7.375 1.193,7.47 0.646,7.426 0.16,7.248 -0.077,7.464 -0.555,7.399 -0.706,7.131 -0.963,7.297 -1.371,7.244 -1.562,7.02 -1.761,7.23 -2.197,7.206 -2.364,6.975 -2.527,7.149 -2.863,7.17 -3.052,7.017 -3.491,6.99 -3.93,6.964 -4.369,6.937 -4.889,6.906 -5.453,6.859 -5.836,6.55 -6.489,6.655 -7.202,6.351 -7.508,5.835 -8.006,5.943 -8.486,5.364 -8.214,4.984 -8.402,4.895 -8.587,4.575 -8.579,4.389 -8.57,4.203 -8.432,4.025 -8.236,3.951 -8.458,3.921 -8.527,3.638 -8.394,3.48 -8.259,3.322 -8.016,3.272 -7.792,3.259 -7.895,3.078 -7.801,2.849 -7.63,2.712 c 0.17,-0.137 0.399,-0.2 0.622,-0.253 -0.115,-0.211 0.099,-0.453 0.336,-0.562 0.237,-0.109 0.519,-0.159 0.707,-0.326 0.182,-0.162 0.282,-0.433 0.539,-0.469 0.074,-0.011 0.153,0.003 0.227,-0.014 0.183,-0.041 0.251,-0.235 0.387,-0.351 0.156,-0.134 0.425,-0.152 0.603,-0.04 0.055,-0.258 0.521,-0.343 0.689,-0.125 0.068,-0.3 0.574,-0.432 0.819,-0.215 0.111,-0.261 0.566,-0.341 0.783,-0.138 0.004,-0.226 0.395,-0.35 0.564,-0.18 0.09,-0.159 0.321,-0.244 0.514,-0.189 0.073,0.021 0.142,0.059 0.218,0.061 0.098,0.002 0.184,-0.054 0.275,-0.084 C -0.255,-0.202 -0.026,-0.082 0,0"/>
        </g>
        <g transform="translate(273.2222,528.1554)" id="g364">
          <path id="path366" style="fill:#e4a542;fill-opacity:1;fill-rule:nonzero;stroke:none" d="m 0,0 c 2.354,-0.018 4.682,-0.393 7.007,-0.709 9.01,-1.228 18.173,-1.599 27.274,-1.104 0.481,0.025 0.977,0.052 1.43,-0.09 0.455,-0.142 0.856,-0.502 0.848,-0.923 -0.007,-0.383 -0.333,-0.699 -0.648,-0.966 -1.331,-1.134 -2.811,-2.135 -4.401,-2.976 -0.473,-0.251 -0.96,-0.49 -1.374,-0.81 -0.509,-0.393 -0.889,-0.892 -1.311,-1.357 -2.199,-2.426 -5.657,-3.944 -9.195,-4.037 -0.988,-1.755 -2.798,-3.028 -4.552,-4.243 -1.147,-0.795 -2.327,-1.605 -3.716,-2.01 -1.998,-0.582 -4.182,-0.259 -6.274,-0.473 -5.463,-0.556 -9.66,-4.627 -14.993,-5.802 -0.793,-0.175 -1.687,-0.271 -2.384,0.104 -0.47,0.253 -0.776,0.687 -1.005,1.127 -0.491,0.942 -0.709,1.974 -0.863,3 -0.639,4.28 -0.201,8.682 1.272,12.801 0.505,1.41 1.138,2.803 2.112,4.011 C -8.327,-1.42 -4.145,0.031 0,0"/>
        </g>
        <g transform="translate(314.2295,490.9132)" id="g368">
          <path id="path370" style="fill:#5da68d;fill-opacity:1;fill-rule:nonzero;stroke:none" d="M 0,0 C -0.506,1.721 -1.739,3.229 -3.245,4.422 -3.81,4.871 -4.426,5.285 -5.137,5.528 -6.663,6.05 -8.584,5.62 -9.529,4.449 -10.476,3.278 -10.235,1.461 -8.93,0.594 c -2.964,-1.409 -4.458,-4.608 -4.556,-7.558 -0.099,-2.95 0.852,-5.836 1.451,-8.74 1.571,-7.62 0.675,-15.617 -2.558,-22.826 -0.108,-0.24 -0.23,-0.493 -0.47,-0.644 -0.291,-0.183 -0.682,-0.172 -1.041,-0.152 -2.308,0.126 -0.729,0.149 -3.038,0.274 l -3.883,-0.542 c -2.061,-0.113 -4.122,-0.224 -6.184,-0.337 -0.359,-0.02 -0.749,-0.031 -1.041,0.152 -0.24,0.151 -0.361,0.404 -0.469,0.644 -3.233,7.209 -4.129,15.206 -2.558,22.826 0.598,2.904 1.55,5.791 1.451,8.74 -0.099,2.95 -1.593,6.149 -4.557,7.558 1.306,0.867 1.546,2.684 0.601,3.855 -0.946,1.171 -2.868,1.601 -4.394,1.079 -0.711,-0.243 -1.327,-0.658 -1.892,-1.106 -1.505,-1.192 -2.739,-2.701 -3.245,-4.422 -0.506,-1.721 -0.215,-3.662 1.027,-5.068 1.081,-1.226 2.754,-1.942 4.435,-2.426 0.721,-0.207 1.602,-0.352 2.164,0.093 0.328,0.259 0.454,0.655 0.565,1.029 0.381,1.286 0.761,2.57 1.142,3.854 1.462,-1.066 2.06,-2.823 2.053,-4.489 -0.008,-1.665 -0.536,-3.289 -0.964,-4.912 -2.448,-9.3 -1.565,-19.249 2.497,-28.107 -0.755,-0.86 -1.422,-1.762 -1.509,-2.843 -0.088,-1.082 0.383,-2.234 1.389,-2.868 0.765,-0.483 1.733,-0.624 2.642,-0.841 2.152,-0.513 4.261,-1.638 5.134,-3.431 0.512,-1.051 0.555,-2.224 0.591,-3.365 0.054,-1.751 0.108,-3.502 0.163,-5.253 0.542,0.022 2.1,0.807 2.609,0.64 0.346,0.067 -0.308,-0.021 0.047,-0.035 0.055,1.751 0.108,3.502 0.162,5.252 0.036,1.142 0.079,2.315 0.591,3.365 0.874,1.794 2.983,2.919 5.134,3.432 0.91,0.217 1.878,0.358 2.642,0.841 1.006,0.634 1.478,1.786 1.391,2.868 -0.088,1.082 -0.755,1.983 -1.51,2.843 4.061,8.858 4.945,18.807 2.496,28.107 -0.427,1.623 -0.956,3.247 -0.964,4.912 -0.007,1.666 0.591,3.423 2.054,4.489 0.381,-1.284 0.762,-2.569 1.142,-3.854 0.111,-0.374 0.236,-0.77 0.564,-1.029 0.563,-0.446 1.443,-0.3 2.163,-0.093 1.683,0.484 3.355,1.2 4.438,2.425 C 0.216,-3.662 0.507,-1.72 0,0"/>
        </g>
        <g transform="translate(292.2915,434.4591)" id="g372">
          <path id="path374" style="fill:#e19085;fill-opacity:1;fill-rule:nonzero;stroke:none" d="m 0,0 c -0.151,-1.527 -0.353,-3.097 0.143,-4.567 0.831,-0.571 2.121,0.019 2.592,0.847 0.471,0.828 0.439,1.798 0.679,2.698 0.341,1.282 1.224,2.391 1.989,3.523 1.28,1.892 2.274,3.93 2.951,6.046 0.191,0.598 0.366,1.219 0.785,1.72 0.342,0.409 0.824,0.709 1.304,0.994 2.205,1.309 4.545,2.445 6.983,3.389 1.779,0.688 3.726,1.285 5.635,0.96 1.909,-0.324 3.662,-1.9 3.307,-3.572 l -6.298,0.379 c -2.252,0.135 -4.687,0.231 -6.571,-0.855 -0.435,-0.251 -0.85,-0.596 -0.938,-1.045 -0.119,-0.611 0.406,-1.178 0.982,-1.538 1.688,-1.056 4.135,-1.072 5.841,-0.04 0.821,0.497 1.545,1.231 2.538,1.319 1.319,0.117 2.379,-0.956 3.674,-1.202 1.281,-0.243 2.649,0.416 3.309,1.407 0.66,0.991 0.687,2.235 0.312,3.334 -0.529,1.555 -1.847,2.891 -3.529,3.578 -1.12,0.457 -2.367,0.629 -3.603,0.678 C 18.5,18.197 14.869,17.309 11.888,15.56 10.958,15.014 10.058,14.374 8.971,14.136 8.125,13.951 7.238,14.026 6.371,14.103 4.976,14.226 1.894,15.036 0.61,14.592 -0.764,14.116 0.104,11.818 0.178,10.67 0.411,7.116 0.352,3.547 0,0"/>
        </g>
        <g transform="translate(285.2178,442.9117)" id="g376">
          <path id="path378" style="fill:#7d86ba;fill-opacity:1;fill-rule:nonzero;stroke:none" d="m 0,0 c -0.222,-0.264 -0.34,-0.583 -0.437,-0.899 -0.147,-0.477 -0.252,-0.99 -0.083,-1.461 0.17,-0.472 0.696,-0.879 1.256,-0.808 0.448,0.056 0.784,0.386 1.021,0.722 0.437,0.619 0.686,1.364 0.543,2.08 C 2.236,-0.05 2.086,0.268 1.798,0.466 1.215,0.867 0.375,0.447 0,0"/>
        </g>
        <g transform="translate(285.7856,536.2794)" id="g380">
          <path id="path382" style="fill:#4e80ad;fill-opacity:1;fill-rule:nonzero;stroke:none" d="m 0,0 c -1.632,-2.662 -5.95,-3.376 -12.327,-4.339 -7.439,-1.124 -7.388,-0.194 -11.498,-1.024 -2.846,-0.575 -5.581,-1.675 -8.499,-1.791 -0.412,-0.017 -0.86,-0.003 -1.18,0.224 -0.51,0.358 -0.446,1.04 -0.335,1.604 0.541,2.758 1.083,5.515 1.624,8.273 2.533,12.901 5.272,26.257 13.769,37.033 2.465,3.126 5.572,6.094 9.677,7.333 1.36,0.41 2.971,0.588 4.15,-0.133 0.955,-0.586 1.39,-1.615 1.77,-2.579 1.041,-2.639 2.085,-5.288 2.719,-8.024 0.727,-3.134 0.368,-4.202 0.661,-15.4 0.022,-0.84 0.051,-1.913 0.071,-3.418 0.034,-2.641 -0.003,-3.394 0,-6.747 0.002,-3.993 0.056,-3.953 0,-5.396 C 0.472,2.313 0.406,0.663 0,0"/>
        </g>
        <g transform="translate(295.6768,609.8693)" id="g384">
          <path id="path386" style="fill:#7d6456;fill-opacity:1;fill-rule:nonzero;stroke:none" d="M 0,0 C 0.116,0.148 0.072,0.226 0.144,0.473 0.363,1.229 1.255,1.37 1.477,1.987 1.701,2.611 1.748,3.272 1.86,3.92 2.061,5.086 2.474,6.225 3.08,7.279 3.296,7.656 3.628,8.071 4.11,8.07 4.698,8.067 5.013,7.465 5.106,6.958 5.249,6.19 5.226,5.401 5.419,4.641 5.587,3.979 5.917,3.352 6.054,2.684 6.182,2.054 6.135,1.409 6.087,0.771 6.011,-0.257 5.907,-1.349 5.201,-2.172 4.576,-2.901 3.559,-3.317 2.951,-4.057 2.508,-4.597 2.221,-5.345 1.489,-5.518 c -0.547,-0.129 -1.12,0.141 -1.524,0.489 -0.405,0.346 -0.712,0.777 -1.147,1.095 -0.435,0.318 -1.073,0.505 -1.569,0.266 -0.225,-0.109 -0.39,-0.29 -0.554,-0.463 -0.365,-0.386 -0.772,-0.763 -1.293,-0.973 -0.52,-0.21 -1.181,-0.221 -1.63,0.091 -0.423,0.294 -0.574,0.799 -0.94,1.146 -0.249,0.236 -0.584,0.387 -0.906,0.542 -0.939,0.451 -1.871,1.026 -2.316,1.879 -0.396,0.762 -0.348,1.635 -0.293,2.471 l 0.327,4.929 c 0.045,0.682 0.103,1.399 0.525,1.974 0.35,0.473 1.127,0.803 1.632,0.454 0.563,-0.391 0.27,-1.167 0.342,-1.792 0.099,-0.876 0.982,-1.526 1.293,-2.362 0.254,-0.685 0.106,-1.449 0.385,-2.126 0.463,-1.127 1.799,-1.63 2.57,-1.973 0.735,-0.328 1.279,-0.429 1.641,-0.47 C -1.579,-0.386 -0.405,-0.52 0,0"/>
        </g>
        <g transform="translate(304.6152,495.5743)" id="g388">
          <path id="path390" style="fill:#ae9b8e;fill-opacity:1;fill-rule:nonzero;stroke:none" d="M 0,0 C -0.278,0.459 -0.192,1.055 0.162,1.472 0.517,1.891 1.108,2.131 1.702,2.156 2.052,2.17 2.438,2.098 2.65,1.855 2.849,1.63 2.848,1.312 2.75,1.042 1.928,0.633 1.049,0.313 0.138,0.089 0.006,0.057 -0.215,0.128 -0.129,0.222"/>
        </g>
        <g transform="translate(278.1885,495.2218)" id="g392">
          <path id="path394" style="fill:#ae9b8e;fill-opacity:1;fill-rule:nonzero;stroke:none" d="M 0,0 C 0.278,0.459 0.192,1.055 -0.162,1.472 -0.517,1.891 -1.108,2.131 -1.702,2.156 -2.051,2.17 -2.437,2.098 -2.65,1.855 -2.848,1.63 -2.847,1.312 -2.75,1.042 -1.927,0.633 -1.048,0.313 -0.138,0.089 -0.006,0.057 0.215,0.128 0.129,0.222"/>
        </g>
        <g transform="translate(311.3662,443.1705)" id="g396">
          <path id="path398" style="fill:#de7a74;fill-opacity:1;fill-rule:nonzero;stroke:none" d="m 0,0 c 0.059,0.123 0.027,0.274 -0.077,0.37 -0.053,0.05 -0.126,0.091 -0.143,0.157 -0.026,0.1 0.083,0.228 -0.008,0.293 -0.027,0.02 -0.068,0.025 -0.095,0.046 -0.063,0.046 -0.031,0.133 0.009,0.196 0.039,0.062 0.077,0.146 0.019,0.197 -0.025,0.023 -0.063,0.03 -0.094,0.048 -0.106,0.061 -0.083,0.2 -0.037,0.304 0.045,0.103 0.098,0.227 0.021,0.315 -0.07,0.079 -0.22,0.089 -0.267,0.179 -0.058,0.112 0.091,0.226 0.099,0.348 0.007,0.085 -0.067,0.169 -0.161,0.187 -0.029,0.005 -0.06,0.005 -0.085,0.018 -0.051,0.026 -0.055,0.09 -0.034,0.137 0.021,0.048 0.061,0.088 0.082,0.136 0.039,0.091 -0.006,0.205 -0.102,0.256 -0.048,0.024 -0.107,0.039 -0.134,0.08 -0.03,0.05 0.003,0.11 0.036,0.159 0.076,0.113 0.153,0.224 0.228,0.337 -0.056,0.139 -0.282,0.146 -0.452,0.14 C -2.587,3.854 -4.01,3.697 -5.243,3.131 -5.593,2.97 -5.928,2.775 -6.191,2.517 -6.456,2.259 -6.646,1.935 -6.676,1.59 -6.719,1.104 -6.437,0.627 -6.032,0.292 c 0.405,-0.335 0.924,-0.546 1.447,-0.714 0.452,-0.146 0.923,-0.264 1.404,-0.283 0.476,-0.019 0.951,0.059 1.412,0.163 C -1.164,-0.407 -0.571,-0.22 0,0"/>
        </g>
        <g transform="translate(314.2959,485.2018)" id="g400">
          <path id="path402" style="fill:none;stroke:#a8a9ac;stroke-width:0.67500001;stroke-linecap:butt;stroke-linejoin:miter;stroke-miterlimit:10;stroke-dasharray:none;stroke-opacity:1" d="M 0,0 H 83.652"/>
        </g>
        <g transform="translate(320.9199,546.1266)" id="g404">
          <path id="path406" style="fill:none;stroke:#a8a9ac;stroke-width:0.67500001;stroke-linecap:butt;stroke-linejoin:miter;stroke-miterlimit:10;stroke-dasharray:none;stroke-opacity:1" d="M 0,0 H 78.256"/>
        </g>
        <g transform="translate(298.6382,607.6627)" id="g408">
          <path id="path410" style="fill:none;stroke:#a8a9ac;stroke-width:0.67500001;stroke-linecap:butt;stroke-linejoin:miter;stroke-miterlimit:10;stroke-dasharray:none;stroke-opacity:1" d="M 0,0 H 98.494"/>
        </g>
        <g transform="translate(315.5234,519.1417)" id="g412">
          <path id="path414" style="fill:none;stroke:#a8a9ac;stroke-width:0.67500001;stroke-linecap:butt;stroke-linejoin:miter;stroke-miterlimit:10;stroke-dasharray:none;stroke-opacity:1" d="M 0,0 H 83.652"/>
        </g>
        <g transform="translate(299.332,443.6481)" id="g416">
          <path id="path418" style="fill:none;stroke:#a8a9ac;stroke-width:0.67500001;stroke-linecap:butt;stroke-linejoin:miter;stroke-miterlimit:10;stroke-dasharray:none;stroke-opacity:1" d="M 0,0 H 99.844"/>
        </g>
        <g transform="translate(265.8618,560.7052)" id="g420">
          <path id="path422" style="fill:none;stroke:#a8a9ac;stroke-width:0.67500001;stroke-linecap:butt;stroke-linejoin:miter;stroke-miterlimit:10;stroke-dasharray:none;stroke-opacity:1" d="M 0,0 H -89.049"/>
        </g>
        <g transform="translate(283.4014,447.3702)" id="g424">
          <path id="path426" style="fill:none;stroke:#a8a9ac;stroke-width:0.67500001;stroke-linecap:butt;stroke-linejoin:miter;stroke-miterlimit:10;stroke-dasharray:none;stroke-opacity:1" d="M 0,0 H -106.589"/>
        </g>
        <g transform="translate(467.0928,454.5587)" id="g428">
          <path id="path430" style="fill:#5f6269;fill-opacity:1;fill-rule:nonzero;stroke:none" d="M 0,0 V -0.064"/>
        </g>
        <g transform="translate(273.8594,503.6149)" id="g432">
          <path id="path434" style="fill:#e4a542;fill-opacity:1;fill-rule:nonzero;stroke:none" d="M 0,0 C 0.022,0.279 -0.112,0.546 -0.23,0.807 -0.726,1.906 -0.945,3.084 -1.367,4.206 -1.384,4.251 -1.403,4.299 -1.446,4.329 -1.517,4.378 -1.619,4.358 -1.706,4.336 -2.359,4.168 -3.012,4.001 -3.666,3.833 -2.905,3.073 -2.564,2.062 -2.32,1.074 -2.208,0.622 -1.981,0.6 -1.539,0.474 -1.021,0.326 -0.509,0.167 0,0"/>
        </g>
        <g transform="translate(299.332,504.3004)" id="g436">
          <path id="path438" style="fill:none;stroke:#a8a9ac;stroke-width:0.67500001;stroke-linecap:butt;stroke-linejoin:miter;stroke-miterlimit:10;stroke-dasharray:none;stroke-opacity:1" d="M 0,0 H 99.844"/>
        </g>
        <g transform="translate(272.6079,506.736)" id="g440">
          <path id="path442" style="fill:none;stroke:#a8a9ac;stroke-width:0.67500001;stroke-linecap:butt;stroke-linejoin:miter;stroke-miterlimit:10;stroke-dasharray:none;stroke-opacity:1" d="M 0,0 H -95.796"/>
        </g>
        <g transform="translate(283.4014,440.6237)" id="g444">
          <path id="path446" style="fill:none;stroke:#a8a9ac;stroke-width:0.67500001;stroke-linecap:butt;stroke-linejoin:miter;stroke-miterlimit:10;stroke-dasharray:none;stroke-opacity:1" d="M 0,0 H -106.589"/>
        </g>
      </g>
    </g>
    <text id="text468" style="font-variant: normal; font-weight: normal; font-stretch: normal; font-size: 13.4923px; font-family: Arial; writing-mode: lr-tb; fill: rgb(197, 53, 48); fill-opacity: 1; fill-rule: nonzero; stroke: none; white-space: pre;" transform="matrix(1,0,0,-1,398.9639,601.9307)"><tspan id="tspan448" y="0" x="0 8.2437954 15.745514 22.491665 26.9846 34.48632 37.481609 44.98333 48.734188 56.977982 66.719421 76.460861">Thyroid/THCA</tspan><tspan id="tspan450" y="57.571644" x="5.1270738 14.126438 18.619373 26.121094 33.62281 40.368961 44.11982 47.870682 56.870045 66.611488 76.352928">Breast/BRCA</tspan><tspan id="tspan452" y="86.607071" x="2.8063984 13.303408 20.805126 27.551277 31.302135 35.795071 38.790363 45.536514 49.287373 58.286736 66.530533 75.529892">Gastric/STAD</tspan><tspan id="tspan454" y="103.94468" x="3.0087829 12.008147 19.509867 27.011585 33.757736 38.250671 45.752388 53.254108 60.000259 67.501976 71.252838 80.252197 89.251564 98.250931">Pancrease/PAAD</tspan><tspan id="tspan456" y="120.67513" x="2.7524292 12.49387 19.995588 22.990879 30.492598 34.985535 42.487251 49.233402 53.726337 61.228058 64.223351 67.974205 77.715645 88.212654 97.212021 106.95346 110.70432 120.44576 129.44513 138.44449">Colorecral/COAD/READ</tspan><tspan id="tspan458" y="162.12347" x="4.128644 14.625653 21.371803 28.873522 33.366459 36.361748 43.863468 51.365185 55.116047 65.613052">Ovarian/OV</tspan><tspan id="tspan460" y="44.98333" x="-297.89648 -290.39478 -282.89307 -275.39133 -267.88962 -264.13876 -256.63702 -246.8956 -237.89624">Lung/LUAD</tspan><tspan id="tspan462" y="97.751717" x="-359.98807 -356.23718 -348.73547 -344.98462 -340.49167 -332.98996 -325.48825 -317.98651 -310.4848 -302.98309 -299.23224 -296.23694 -289.49078 -284.63358 -277.13184 -269.63013 -262.88397 -259.13312 -255.38225 -251.63139 -241.88995">Intrahepatic duct/ICC</tspan><tspan id="tspan464" y="154.41937" x="-357.14117 -347.39975 -342.9068 -339.9115 -332.40979 -324.90808 -320.41513 -313.66898 -309.91812 -302.41641 -299.42111 -291.9194 -284.41769 -276.91595 -269.41425 -264.92133 -261.17044 -252.17108 -244.66937 -234.92793">Urinary bladder/BLCA</tspan><tspan id="tspan466" y="166.73784" x="-316.31348 -307.31412 -302.82117 -295.31946 -288.5733 -284.82245 -277.32074 -273.56989 -266.06815 -262.31729 -253.31793 -243.57649 -234.57713">Prostate/PRAD</tspan></text>
    <g id="g470">
      <g clip-path="url(#clipPath476)" id="g472">
        <g transform="translate(286.3872,568.8795)" id="g478">
          <path id="path480" style="fill:#7cbcdd;fill-opacity:1;fill-rule:nonzero;stroke:none" d="m 0,0 c 0.123,-0.44 0.012,-0.178 0,-6.746 v -4.048 -4.251 -1.146 -4.048 c -1.974,-1.048 -4.849,-2.805 -7.631,-5.554 -3.323,-3.28 -3.914,-5.254 -6.802,-7.424 -2.759,-2.074 -6.361,-3.493 -9.98,-3.161 2.193,0.598 4.26,1.545 6.071,2.781 -1.945,-0.52 -4.226,-0.998 -5.871,0.047 -0.533,0.338 -0.935,0.805 -1.33,1.265 -1.038,1.21 -2.076,2.419 -3.114,3.629 2.473,-2.109 5.482,-4.153 8.934,-4.078 3.934,0.085 7.076,2.897 9.159,5.817 0.616,0.866 1.082,2.189 0.104,2.744 -0.532,0.301 -1.257,0.173 -1.794,-0.12 -0.538,-0.294 -0.954,-0.728 -1.44,-1.083 -1.662,-1.212 -4.216,-1.38 -6.067,-0.4 -0.277,0.147 -0.575,0.324 -0.896,0.278 -0.515,-0.073 -0.692,-0.639 -0.714,-1.095 -0.067,-1.367 0.239,-2.747 0.887,-3.992 -1.226,0.41 -1.993,1.55 -2.117,2.693 -0.124,1.142 0.3,2.281 0.879,3.311 -1.237,1.34 -3.531,1.616 -5.416,1.119 -1.885,-0.497 -3.46,-1.616 -4.982,-2.708 1.039,1.355 2.134,2.737 3.696,3.629 1.563,0.893 3.722,1.184 5.274,0.277 1.011,-0.591 1.625,-1.591 2.593,-2.236 1.849,-1.23 4.877,-0.7 6.041,1.058 -1.195,0.151 -2.444,0.322 -3.413,0.953 -1.223,0.798 -1.782,2.194 -2.992,3.007 -1.108,0.744 -2.589,0.891 -3.832,1.448 -2.714,1.22 -3.777,4.608 -2.154,6.867 -0.115,-1.945 -0.03,-4.259 1.826,-5.335 0.685,-0.397 1.511,-0.549 2.296,-0.761 1.672,-0.453 3.233,-1.213 4.553,-2.217 1.138,0.299 1.575,1.588 1.256,2.589 -0.318,1.001 -1.157,1.798 -1.874,2.626 -0.718,0.829 -1.361,1.824 -1.186,2.851 0.928,-1.234 2.053,-2.356 3.333,-3.319 0.439,-0.331 0.906,-0.654 1.188,-1.096 0.974,-1.526 -0.709,-3.32 -0.764,-5.067 -0.013,-0.427 0.093,-0.887 0.451,-1.177 0.291,-0.235 0.701,-0.321 1.095,-0.353 1.425,-0.114 2.832,0.362 4.079,0.979 1.078,0.532 2.174,1.301 2.33,2.376 0.143,0.981 -0.555,1.91 -1.378,2.588 -0.822,0.678 -1.803,1.215 -2.509,1.987 -1.847,2.018 -1.311,4.911 -1.333,7.495 -0.006,0.683 -0.065,1.388 -0.423,1.995 -0.432,0.73 -1.239,1.222 -2.015,1.685 -1.525,0.909 -3.227,1.86 -5.061,1.68 1.403,0.418 2.919,0.684 4.365,0.4 1.446,-0.285 2.797,-1.227 3.081,-2.499 1.203,2.556 3.169,4.969 6.018,6.167 -2.398,-1.671 -4.071,-4.118 -4.623,-6.756 -0.394,-1.888 -0.229,-3.829 0.018,-5.736 0.191,-1.469 0.456,-2.994 1.427,-4.204 0.971,-1.209 2.86,-1.983 4.4,-1.374 1.343,0.532 1.975,1.873 2.38,3.114 1.989,6.069 2.454,9.639 0.39,15.688 -0.719,2.107 -1.931,4.116 -3.075,6.074 0.593,-0.647 1.442,-1.604 2.405,-2.8 C -1.745,3.31 -0.489,1.749 0,0"/>
        </g>
        <g transform="translate(279.6377,612.4645)" id="g482">
          <path id="path484" style="fill:#e0dfde;fill-opacity:1;fill-rule:nonzero;stroke:none" d="M 0,0 C 1.254,0.661 2.438,1.493 3.342,2.584 4.246,3.676 4.856,5.046 4.874,6.464 4.876,6.619 4.871,6.777 4.829,6.926 4.668,7.511 4.038,7.811 3.476,8.038 3.323,8.099 3.162,8.162 2.999,8.144 2.025,8.04 2.3,5.133 2.141,4.423 1.777,2.812 1.046,1.281 0,0"/>
        </g>
        <g transform="translate(305.8398,611.0626)" id="g486">
          <path id="path488" style="fill:#e0dfde;fill-opacity:1;fill-rule:nonzero;stroke:none" d="m 0,0 c -1.746,0.784 -3.072,2.33 -3.881,4.063 -0.809,1.734 -1.141,3.654 -1.301,5.561 -0.07,0.832 -0.056,1.795 0.578,2.339 2.239,1.92 3.231,-2.341 3.329,-3.667 C -1.062,5.417 -1.002,2.764 0,0"/>
        </g>
      </g>
    </g>
  </g>
</svg>